<svg width="24" height="24" viewBox="0 0 24 24" fill="none" xmlns="http://www.w3.org/2000/svg">
<path d="M12.75 15.92H13.4C14.05 15.92 14.59 15.34 14.59 14.64C14.59 13.77 14.28 13.6 13.77 13.42L12.76 13.07V15.92H12.75Z" fill="#2E5789"/>
<path d="M11.97 1.89803C6.45001 1.91803 1.98001 6.40803 2.00001 11.928C2.02001 17.448 6.51001 21.918 12.03 21.898C17.55 21.878 22.02 17.388 22 11.868C21.98 6.34803 17.49 1.88803 11.97 1.89803ZM14.26 11.998C15.04 12.268 16.09 12.848 16.09 14.638C16.09 16.178 14.88 17.418 13.4 17.418H12.75V17.998C12.75 18.408 12.41 18.748 12 18.748C11.59 18.748 11.25 18.408 11.25 17.998V17.418H10.89C9.25001 17.418 7.92001 16.038 7.92001 14.338C7.92001 13.928 8.26001 13.588 8.67001 13.588C9.08001 13.588 9.42001 13.928 9.42001 14.338C9.42001 15.208 10.08 15.918 10.89 15.918H11.25V12.538L9.74001 11.998C8.96001 11.728 7.91001 11.148 7.91001 9.35803C7.91001 7.81803 9.12001 6.57803 10.6 6.57803H11.25V5.99803C11.25 5.58803 11.59 5.24803 12 5.24803C12.41 5.24803 12.75 5.58803 12.75 5.99803V6.57803H13.11C14.75 6.57803 16.08 7.95803 16.08 9.65803C16.08 10.068 15.74 10.408 15.33 10.408C14.92 10.408 14.58 10.068 14.58 9.65803C14.58 8.78803 13.92 8.07803 13.11 8.07803H12.75V11.458L14.26 11.998Z" fill="#2E5789"/>
<path d="M9.422 9.368C9.422 10.238 9.732 10.408 10.242 10.588L11.252 10.938V8.078H10.602C9.952 8.078 9.422 8.658 9.422 9.368Z" fill="#2E5789"/>
</svg>
