<svg width="58" height="58" viewBox="0 0 58 58" fill="none" xmlns="http://www.w3.org/2000/svg">
<g filter="url(#filter0_d_265_1196)">
<path d="M40.3333 30.3334H37.3333V27.3334C37.3333 26.7867 36.88 26.3334 36.3333 26.3334C35.7867 26.3334 35.3333 26.7867 35.3333 27.3334V30.3334H32.3333C31.7867 30.3334 31.3333 30.7867 31.3333 31.3334C31.3333 31.88 31.7867 32.3334 32.3333 32.3334H35.3333V35.3334C35.3333 35.88 35.7867 36.3334 36.3333 36.3334C36.88 36.3334 37.3333 35.88 37.3333 35.3334V32.3334H40.3333C40.88 32.3334 41.3333 31.88 41.3333 31.3334C41.3333 30.7867 40.88 30.3334 40.3333 30.3334ZM42.3333 19.36V13.3067C42.3333 11.4267 41.48 10.6667 39.36 10.6667H33.9733C31.8533 10.6667 31 11.4267 31 13.3067V19.3467C31 21.24 31.8533 21.9867 33.9733 21.9867H39.36C41.48 22 42.3333 21.24 42.3333 19.36ZM27 19.36V13.3067C27 11.4267 26.1467 10.6667 24.0267 10.6667H18.64C16.52 10.6667 15.6667 11.4267 15.6667 13.3067V19.3467C15.6667 21.24 16.52 21.9867 18.64 21.9867H24.0267C26.1467 22 27 21.24 27 19.36ZM27 34.36V28.9734C27 26.8534 26.1467 26 24.0267 26H18.64C16.52 26 15.6667 26.8534 15.6667 28.9734V34.36C15.6667 36.48 16.52 37.3334 18.64 37.3334H24.0267C26.1467 37.3334 27 36.48 27 34.36Z" fill="white"/>
</g>
<defs>
<filter id="filter0_d_265_1196" x="-2" y="-2" width="62" height="62" filterUnits="userSpaceOnUse" color-interpolation-filters="sRGB">
<feFlood flood-opacity="0" result="BackgroundImageFix"/>
<feColorMatrix in="SourceAlpha" type="matrix" values="0 0 0 0 0 0 0 0 0 0 0 0 0 0 0 0 0 0 127 0" result="hardAlpha"/>
<feOffset dy="5"/>
<feGaussianBlur stdDeviation="7.5"/>
<feColorMatrix type="matrix" values="0 0 0 0 0 0 0 0 0 0 0 0 0 0 0 0 0 0 0.52 0"/>
<feBlend mode="normal" in2="BackgroundImageFix" result="effect1_dropShadow_265_1196"/>
<feBlend mode="normal" in="SourceGraphic" in2="effect1_dropShadow_265_1196" result="shape"/>
</filter>
</defs>
</svg>
