<svg width="25" height="28" viewBox="0 0 25 28" fill="none" xmlns="http://www.w3.org/2000/svg">
<g clip-path="url(#clip0_1095_8988)">
<path d="M12.2554 7.71099C8.7773 7.71099 5.97183 10.5165 5.97183 13.9946C5.97183 17.4727 8.7773 20.2782 12.2554 20.2782C15.7335 20.2782 18.539 17.4727 18.539 13.9946C18.539 10.5165 15.7335 7.71099 12.2554 7.71099ZM12.2554 18.0797C10.0078 18.0797 8.17026 16.2477 8.17026 13.9946C8.17026 11.7415 10.0023 9.90942 12.2554 9.90942C14.5085 9.90942 16.3406 11.7415 16.3406 13.9946C16.3406 16.2477 14.5031 18.0797 12.2554 18.0797ZM20.2617 7.45396C20.2617 8.2688 19.6054 8.91958 18.796 8.91958C17.9812 8.91958 17.3304 8.26333 17.3304 7.45396C17.3304 6.64458 17.9867 5.98833 18.796 5.98833C19.6054 5.98833 20.2617 6.64458 20.2617 7.45396ZM24.4234 8.94146C24.3304 6.97817 23.882 5.23911 22.4437 3.8063C21.0109 2.37349 19.2718 1.92505 17.3085 1.82661C15.2851 1.71177 9.22026 1.71177 7.19683 1.82661C5.23901 1.91958 3.49995 2.36802 2.06167 3.80083C0.623389 5.23364 0.18042 6.9727 0.0819824 8.93599C-0.0328613 10.9594 -0.0328613 17.0243 0.0819824 19.0477C0.174951 21.011 0.623389 22.75 2.06167 24.1829C3.49995 25.6157 5.23354 26.0641 7.19683 26.1625C9.22026 26.2774 15.2851 26.2774 17.3085 26.1625C19.2718 26.0696 21.0109 25.6211 22.4437 24.1829C23.8765 22.75 24.325 21.011 24.4234 19.0477C24.5382 17.0243 24.5382 10.9649 24.4234 8.94146ZM21.8093 21.2188C21.3828 22.2907 20.557 23.1165 19.4796 23.5485C17.8664 24.1883 14.0382 24.0407 12.2554 24.0407C10.4726 24.0407 6.63901 24.1829 5.0312 23.5485C3.95933 23.1219 3.13355 22.2961 2.70151 21.2188C2.06167 19.6055 2.20933 15.7774 2.20933 13.9946C2.20933 12.2118 2.06714 8.37817 2.70151 6.77036C3.12808 5.69849 3.95386 4.8727 5.0312 4.44067C6.64448 3.80083 10.4726 3.94849 12.2554 3.94849C14.0382 3.94849 17.8718 3.8063 19.4796 4.44067C20.5515 4.86724 21.3773 5.69302 21.8093 6.77036C22.4492 8.38364 22.3015 12.2118 22.3015 13.9946C22.3015 15.7774 22.4492 19.611 21.8093 21.2188Z" fill="#484848"/>
</g>
<defs>
<clipPath id="clip0_1095_8988">
<rect width="24.5" height="28" fill="white"/>
</clipPath>
</defs>
</svg>
