<svg width="24" height="28" viewBox="0 0 24 28" fill="none" xmlns="http://www.w3.org/2000/svg">
<path d="M5.37201 24.5H0.39634V8.14297H5.37201V24.5ZM2.8815 5.91172C1.29078 5.91172 0 4.56641 0 2.94219C0 1.31797 1.29078 0 2.8815 0C4.47222 0 5.763 1.31797 5.763 2.94219C5.763 4.56641 4.47222 5.91172 2.8815 5.91172ZM23.9946 24.5H19.0297V16.5375C19.0297 14.6398 18.9922 12.2063 16.4428 12.2063C13.8558 12.2063 13.4595 14.268 13.4595 16.4008V24.5H8.48918V8.14297H13.2613V10.3742H13.331C13.9951 9.08906 15.6179 7.73281 18.0388 7.73281C23.0734 7.73281 24 11.118 24 15.5148V24.5H23.9946Z" fill="#484848"/>
</svg>
