<svg width="58" height="58" viewBox="0 0 58 58" fill="none" xmlns="http://www.w3.org/2000/svg">
<g filter="url(#filter0_d_265_1198)">
<path d="M34.3334 10.6667H23.6667C18.3334 10.6667 15.6667 13.3334 15.6667 18.6667V36C15.6667 36.7334 16.2667 37.3334 17 37.3334H34.3334C39.6667 37.3334 42.3334 34.6667 42.3334 29.3334V18.6667C42.3334 13.3334 39.6667 10.6667 34.3334 10.6667ZM31.6667 28.3334H22.3334C21.7867 28.3334 21.3334 27.88 21.3334 27.3334C21.3334 26.7867 21.7867 26.3334 22.3334 26.3334H31.6667C32.2134 26.3334 32.6667 26.7867 32.6667 27.3334C32.6667 27.88 32.2134 28.3334 31.6667 28.3334ZM35.6667 21.6667H22.3334C21.7867 21.6667 21.3334 21.2134 21.3334 20.6667C21.3334 20.12 21.7867 19.6667 22.3334 19.6667H35.6667C36.2134 19.6667 36.6667 20.12 36.6667 20.6667C36.6667 21.2134 36.2134 21.6667 35.6667 21.6667Z" fill="white"/>
</g>
<defs>
<filter id="filter0_d_265_1198" x="-2" y="-2" width="62" height="62" filterUnits="userSpaceOnUse" color-interpolation-filters="sRGB">
<feFlood flood-opacity="0" result="BackgroundImageFix"/>
<feColorMatrix in="SourceAlpha" type="matrix" values="0 0 0 0 0 0 0 0 0 0 0 0 0 0 0 0 0 0 127 0" result="hardAlpha"/>
<feOffset dy="5"/>
<feGaussianBlur stdDeviation="7.5"/>
<feColorMatrix type="matrix" values="0 0 0 0 0 0 0 0 0 0 0 0 0 0 0 0 0 0 0.35 0"/>
<feBlend mode="normal" in2="BackgroundImageFix" result="effect1_dropShadow_265_1198"/>
<feBlend mode="normal" in="SourceGraphic" in2="effect1_dropShadow_265_1198" result="shape"/>
</filter>
</defs>
</svg>
