<svg width="28" height="28" viewBox="0 0 28 28" fill="none" xmlns="http://www.w3.org/2000/svg">
<path d="M21.3733 8.35984C21.2805 8.34651 21.1862 8.34651 21.0933 8.35984C20.0975 8.32725 19.1536 7.90809 18.4616 7.19123C17.7696 6.47437 17.3841 5.51618 17.3867 4.51984C17.3867 2.39984 19.1067 0.666504 21.24 0.666504C23.36 0.666504 25.0933 2.3865 25.0933 4.51984C25.0905 5.51681 24.7013 6.47387 24.0076 7.18994C23.314 7.90601 22.3697 8.32534 21.3733 8.35984ZM25.7227 17.5998C24.2293 18.5998 22.136 18.9732 20.2027 18.7198C20.7093 17.6265 20.976 16.4132 20.9893 15.1332C20.9893 13.7998 20.696 12.5332 20.136 11.4265C22.1093 11.1598 24.2027 11.5332 25.7093 12.5332C27.816 13.9198 27.816 16.1998 25.7227 17.5998ZM6.58668 8.35984C6.68001 8.3465 6.77335 8.3465 6.86668 8.35984C7.8625 8.32725 8.80647 7.90809 9.49844 7.19123C10.1904 6.47437 10.576 5.51618 10.5733 4.51984C10.5733 4.01469 10.4738 3.51448 10.2805 3.04778C10.0872 2.58108 9.80388 2.15703 9.44668 1.79983C9.08949 1.44264 8.66543 1.15929 8.19874 0.965981C7.73204 0.772667 7.23183 0.67317 6.72668 0.67317C6.22153 0.67317 5.72132 0.772667 5.25462 0.965981C4.78793 1.15929 4.36387 1.44264 4.00668 1.79983C3.64948 2.15703 3.36614 2.58108 3.17282 3.04778C2.97951 3.51448 2.88001 4.01469 2.88001 4.51984C2.88001 6.59984 4.52001 8.29317 6.58668 8.35984ZM6.73468 15.1332C6.73468 16.4265 7.01468 17.6532 7.52135 18.7598C5.64135 18.9598 3.68135 18.5598 2.24135 17.6132C0.13468 16.2132 0.13468 13.9332 2.24135 12.5332C3.66801 11.5732 5.68135 11.1865 7.57468 11.3998C7.02801 12.5198 6.73468 13.7865 6.73468 15.1332ZM14.16 19.1598C14.0448 19.1465 13.9285 19.1465 13.8133 19.1598C12.6278 19.12 11.5043 18.6204 10.6806 17.7669C9.85687 16.9133 9.39761 15.7727 9.40001 14.5865C9.41335 12.0532 11.4533 9.99984 14 9.99984C16.5333 9.99984 18.5867 12.0532 18.5867 14.5865C18.586 15.774 18.1239 16.9148 17.2979 17.7681C16.472 18.6214 15.3469 19.1204 14.16 19.1598ZM9.82668 21.9198C7.81335 23.2665 7.81335 25.4798 9.82668 26.8132C12.12 28.3465 15.88 28.3465 18.1733 26.8132C20.1867 25.4665 20.1867 23.2532 18.1733 21.9198C15.8933 20.3865 12.1333 20.3865 9.82668 21.9198Z" fill="white"/>
</svg>
