<svg width="20" height="22" viewBox="0 0 20 22" fill="none" xmlns="http://www.w3.org/2000/svg">
<path d="M18.59 21C18.59 17.13 14.74 14 9.99997 14C5.25997 14 1.40997 17.13 1.40997 21M9.99997 11C11.3261 11 12.5978 10.4732 13.5355 9.53553C14.4732 8.59785 15 7.32608 15 6C15 4.67392 14.4732 3.40215 13.5355 2.46447C12.5978 1.52678 11.3261 1 9.99997 1C8.67389 1 7.40212 1.52678 6.46444 2.46447C5.52676 3.40215 4.99997 4.67392 4.99997 6C4.99997 7.32608 5.52676 8.59785 6.46444 9.53553C7.40212 10.4732 8.67389 11 9.99997 11V11Z" stroke="#000B12" stroke-opacity="0.93" stroke-width="1.5" stroke-linecap="round" stroke-linejoin="round"/>
</svg>
