<svg width="24" height="24" viewBox="0 0 24 24" fill="none" xmlns="http://www.w3.org/2000/svg">
<path d="M20.91 11.1199C20.91 16.0099 17.36 20.5899 12.51 21.9299C12.18 22.0199 11.82 22.0199 11.49 21.9299C6.64003 20.5899 3.09003 16.0099 3.09003 11.1199V6.72995C3.09003 5.90995 3.71003 4.97995 4.48003 4.66995L10.05 2.38995C11.3 1.87995 12.71 1.87995 13.96 2.38995L19.53 4.66995C20.29 4.97995 20.92 5.90995 20.92 6.72995L20.91 11.1199V11.1199Z" stroke="#000B12" stroke-opacity="0.93" stroke-width="1.5" stroke-linecap="round" stroke-linejoin="round"/>
<path d="M12 12.5V15.5M12 12.5C12.5304 12.5 13.0391 12.2893 13.4142 11.9142C13.7893 11.5391 14 11.0304 14 10.5C14 9.96957 13.7893 9.46086 13.4142 9.08579C13.0391 8.71071 12.5304 8.5 12 8.5C11.4696 8.5 10.9609 8.71071 10.5858 9.08579C10.2107 9.46086 10 9.96957 10 10.5C10 11.0304 10.2107 11.5391 10.5858 11.9142C10.9609 12.2893 11.4696 12.5 12 12.5Z" stroke="#000B12" stroke-opacity="0.93" stroke-width="1.5" stroke-miterlimit="10" stroke-linecap="round" stroke-linejoin="round"/>
</svg>
