<svg width="32" height="28" viewBox="0 0 32 28" fill="none" xmlns="http://www.w3.org/2000/svg">
<g clip-path="url(#clip0_1095_8984)">
<path d="M31.1153 4.45519C29.9751 4.95919 28.7473 5.29519 27.4631 5.45074C28.7786 4.66674 29.7809 3.42852 30.257 1.96007C29.0292 2.67563 27.6698 3.20452 26.2228 3.48452C25.0638 2.25874 23.41 1.49341 21.5808 1.49341C18.0665 1.49341 15.2225 4.3183 15.2225 7.80896C15.2225 8.30674 15.2788 8.78585 15.3853 9.2463C10.1044 8.98496 5.41867 6.47119 2.2802 2.65074C1.7352 3.58407 1.42198 4.66674 1.42198 5.82408C1.42198 8.0143 2.54331 9.94941 4.24722 11.0819C3.20733 11.0507 2.22382 10.7645 1.3656 10.2916C1.3656 10.3165 1.3656 10.3414 1.3656 10.3725C1.3656 13.4339 3.55814 15.985 6.46482 16.5636C5.93235 16.7067 5.36855 16.7876 4.79223 16.7876C4.38504 16.7876 3.98412 16.7503 3.59573 16.6756C4.40383 19.1832 6.75299 21.0125 9.53438 21.0623C7.36063 22.7547 4.61682 23.7627 1.64123 23.7627C1.12755 23.7627 0.620132 23.7316 0.125244 23.6756C2.93796 25.4676 6.28316 26.513 9.87266 26.513C21.5683 26.513 27.9643 16.8934 27.9643 8.54319C27.9643 8.26941 27.958 7.99563 27.9455 7.72808C29.1858 6.83208 30.2633 5.7183 31.1153 4.45519Z" fill="#484848"/>
</g>
<defs>
<clipPath id="clip0_1095_8984">
<rect width="31.322" height="28" fill="white"/>
</clipPath>
</defs>
</svg>
